# xmcd
#
# Track frame offsets:
#	150
#	19603
#	38151
#	68284
#	86173
#	119937
#	140247
#	163636
#
# Disc length: 2592 seconds
#
# Revision: 1
# Processed by: cddbd v1.5.2PL0 Copyright (c) Steve Scherf et al.
# Submitted via: audiograbber 1.83.01
#
DISCID=6c0a1e08
DTITLE=Blue City Blues Band - Full Time Lover
DYEAR=2003
DGENRE=Blues
TTITLE0=Hoochie Goochie Man
TTITLE1=Shame Shame Shame
TTITLE2=Born in Chicago
TTITLE3=Scratch my Back
TTITLE4=Rock me Baby
TTITLE5=Little Dog
TTITLE6=Mojo Workin
TTITLE7=Full Time Lover
EXTD=
EXTT0=
EXTT1=
EXTT2=
EXTT3=
EXTT4=
EXTT5=
EXTT6=
EXTT7=
PLAYORDER=
